<?xml version="1.0" encoding="utf-8"?>
<!-- Generator: Adobe Illustrator 27.5.0, SVG Export Plug-In . SVG Version: 6.00 Build 0)  -->
<svg version="1.1" xmlns="http://www.w3.org/2000/svg" xmlns:xlink="http://www.w3.org/1999/xlink" x="0px" y="0px"
	 viewBox="0 0 500 500" style="enable-background:new 0 0 500 500;" xml:space="preserve">
<g id="Floor">
	<path id="Floor_00000015316662915835042130000002783874977087768969_" style="fill:#F5F5F5;" d="M93.946,273.564
		C7.762,323.322,7.764,403.996,93.951,453.755c86.186,49.758,225.92,49.758,312.104,0c86.184-49.758,86.182-130.433-0.005-180.191
		C319.863,223.805,180.13,223.805,93.946,273.564z"/>
</g>
<g id="Shadows">
	<path id="Shadow_00000164482176791618657930000015577198330936190107_" style="fill:#E0E0E0;" d="M230.093,376.934
		c-4.736,3.278-9.662,6.571-15.29,7.794c-5.628,1.223-12.185-0.081-15.695-4.648c-5.493-7.146-2.63-19.852,2.317-26.312
		c1.689-2.205,3.507-4.219,5.437-6.051c15.758-14.952,38.992-17.459,59.529-13.567c11.739,2.225,25.693,6.294,35.106,14
		c2.871,2.35,5.265,5.425,6.224,9.009c0.766,2.861,0.487,6.18-1.473,8.4c-1.509,1.708-3.77,2.535-5.982,3.085
		c-9.646,2.403-19.767,0.762-29.643-0.373c-7.132-0.82-14.478-1.353-21.564,0.117C241.975,369.859,236.012,372.836,230.093,376.934z
		"/>
	<path id="Shadow_00000103973472105328231020000008098921042156192185_" style="fill:#E0E0E0;" d="M230.269,448.241
		c-5.008,0-9.487-3.709-10.419-8.627l-2.713-14.283c-6.219-1.128-12.258-2.599-17.978-4.381c-0.046-0.005-0.136-0.014-0.264-0.014
		c-0.259,0-0.464,0.031-0.565,0.052l-24.299,11.256c-1.563,0.724-3.395,1.107-5.297,1.108l0,0c-2.337,0-4.629-0.581-6.456-1.635
		l-24.109-13.92c-2.736-1.58-4.457-4.296-4.607-7.268c-0.148-2.973,1.292-5.849,3.856-7.692l15.279-10.995
		c-1.626-2.097-3.069-4.259-4.315-6.467l-31.166-1.973c-5.346-0.339-9.534-4.8-9.534-10.157V355.32
		c0-5.357,4.189-9.819,9.535-10.157l31.165-1.972c1.245-2.206,2.688-4.368,4.315-6.467l-15.28-10.995
		c-2.563-1.844-4.003-4.718-3.856-7.69c0.148-2.971,1.868-5.688,4.605-7.27l24.114-13.922c1.826-1.053,4.118-1.634,6.455-1.634
		c1.901,0,3.732,0.383,5.297,1.107l24.3,11.258c0.101,0.02,0.305,0.052,0.564,0.052c0.129,0,0.218-0.008,0.264-0.014
		c5.708-1.78,11.748-3.25,17.978-4.379l2.711-14.285c0.936-4.917,5.414-8.625,10.419-8.625l35.453,0.001
		c5.01,0,9.49,3.711,10.42,8.627l2.713,14.282c6.226,1.129,12.264,2.6,17.979,4.381c0.046,0.005,0.135,0.014,0.263,0.014
		c0.257,0,0.462-0.031,0.562-0.052l24.3-11.256c1.565-0.726,3.396-1.108,5.3-1.108c2.335,0,4.627,0.58,6.453,1.634l24.111,13.921
		c2.736,1.578,4.457,4.295,4.605,7.268c0.15,2.973-1.292,5.849-3.854,7.691l-15.281,10.996c1.626,2.096,3.069,4.259,4.315,6.467
		l31.172,1.973c5.339,0.343,9.525,4.801,9.529,10.159v17.924c0,5.361-4.19,9.822-9.532,10.156l-31.167,1.973
		c-1.245,2.206-2.689,4.368-4.317,6.467l15.28,10.995c2.564,1.844,4.005,4.72,3.857,7.692c-0.15,2.971-1.871,5.688-4.605,7.266
		l-24.112,13.922c-1.826,1.053-4.118,1.634-6.455,1.634c-1.901,0-3.732-0.383-5.297-1.107l-24.297-11.258
		c-0.101-0.022-0.306-0.052-0.568-0.052c-0.127,0-0.214,0.007-0.26,0.012c-5.717,1.783-11.756,3.253-17.979,4.382l-2.713,14.289
		c-0.938,4.91-5.414,8.617-10.419,8.621H230.269z M193.753,336.993c-13.172,7.604-20.426,17.297-20.426,27.29
		c0,9.994,7.254,19.687,20.426,27.292c14.377,8.3,33.642,12.871,54.246,12.871c20.602,0,39.865-4.57,54.239-12.87
		c13.171-7.604,20.425-17.297,20.425-27.291c0-9.996-7.254-19.689-20.426-27.295c-14.377-8.3-33.64-12.87-54.242-12.87
		S208.13,328.693,193.753,336.993z"/>
	<path id="Shadow_51_" style="fill:#E0E0E0;" d="M98.774,430.771l-52.557-30.343c-1.557-0.899-1.557-2.357,0-3.256l12.877-7.435
		c1.557-0.899,4.082-0.899,5.64,0l52.557,30.344c1.557,0.899,1.557,2.357,0,3.256l-6.439,3.718l65.957,38.08
		c1.557,0.899,0.906,1.206,0.175,1.628c-0.73,0.422-1.262,0.798-2.82-0.101l-65.956-38.08l-3.794,2.19
		C102.856,431.67,100.331,431.67,98.774,430.771z"/>
	<path id="Shadow_16_" style="fill:#E0E0E0;" d="M452.662,407.34c0,0-3.688,2.129-11.393,0c0,0-56.127,32.405-59.812,34.533
		c-3.685,2.128-19.937,4.933-19.937,4.933l-31.33,18.089l-5.854,2.009l-0.699-0.365l3.705-3.289l31.33-18.088
		c0,0,8.544-8.222,11.393-9.867c2.848-1.644,59.813-34.532,59.813-34.532s-3.468-4.577-0.001-6.578
		C434.229,392.541,455.839,404.563,452.662,407.34z"/>
</g>
<g id="Gear">
	<g id="Gear_00000026880211178656585560000003077532080656647298_">
		<g>
			<path style="fill:#BA68C8;" d="M140.531,295.975l-0.007,0.003l0.058,20.929l0.009-0.005c0.003,0.564,0.313,1.139,0.956,1.601
				l11.031,7.937c-0.849,0.648-1.846,1.121-2.789,1.181l-32.132,2.033c-1.658,0.104-3.003,1.537-3.003,3.198v17.926
				c0,0.03,0.015,0.056,0.016,0.086l0.041,20.816c0,1.661,1.345,3.094,3.003,3.199l32.132,2.032
				c0.922,0.059,1.898,0.511,2.736,1.137l-11.092,7.981c-0.644,0.462-0.953,1.036-0.956,1.6l-0.009,0.002l0.058,20.962l0.002-0.001
				c0.021,0.598,0.396,1.18,1.125,1.6l24.112,13.92c1.439,0.831,3.827,0.938,5.335,0.24l24.442-11.323
				c1.508-0.698,4.006-0.829,5.592-0.333c6.089,1.903,12.453,3.403,18.976,4.511c1.638,0.278,3.221,1.798,3.531,3.432l3.057,16.105
				c0.31,1.633,1.908,2.956,3.57,2.956l35.452,0.001c1.661,0,3.26-1.324,3.57-2.956l3.058-16.106
				c0.31-1.633,1.895-3.154,3.533-3.432c6.523-1.108,12.888-2.609,18.977-4.512c1.585-0.496,4.082-0.364,5.59,0.335l24.442,11.323
				c1.507,0.699,3.896,0.591,5.335-0.239l24.112-13.921c0.743-0.429,1.114-1.026,1.121-1.636l0.008,0.002l-0.058-20.923l-0.01-0.002
				c-0.001-0.565-0.311-1.14-0.956-1.604l-11.03-7.937c0.849-0.648,1.845-1.121,2.789-1.181l32.131-2.033
				c1.658-0.105,3.003-1.538,3.002-3.199l-0.049-25.14c0-0.011-0.007-0.02-0.007-0.031l-0.001-13.655
				c0-1.662-1.344-3.094-3.002-3.199l-32.13-2.034c-0.923-0.059-1.899-0.511-2.737-1.137l11.092-7.981
				c0.652-0.47,0.964-1.053,0.958-1.625l0.008,0.003l-0.058-20.901l-0.008-0.001c-0.006-0.611-0.377-1.21-1.121-1.639
				l-24.113-13.921c-1.439-0.83-3.828-0.937-5.336-0.239l-24.442,11.323c-1.508,0.699-4.006,0.829-5.593,0.333
				c-6.087-1.904-12.45-3.403-18.971-4.51c-1.638-0.278-3.223-1.799-3.533-3.432l-3.06-16.106c-0.309-1.633-1.908-2.956-3.57-2.957
				l-35.452-0.001c-1.661,0-3.26,1.324-3.569,2.956l-3.058,16.106c-0.31,1.633-1.895,3.154-3.533,3.432
				c-6.524,1.108-12.887,2.608-18.975,4.511c-1.587,0.496-4.083,0.364-5.59-0.334l-24.441-11.323
				c-1.507-0.698-3.896-0.591-5.335,0.24l-24.113,13.922C140.911,294.77,140.539,295.366,140.531,295.975z M305.725,375.148
				c-31.882,18.407-83.576,18.405-115.458-0.002c-12.468-7.198-20.036-16.147-22.753-25.476c3.446-7.605,11.07-15.033,22.764-21.784
				c31.885-18.408,83.574-18.408,115.457-0.001c12.472,7.201,19.779,15.212,22.232,23.398
				C324.876,360.028,317.473,368.365,305.725,375.148z"/>
		</g>
		<g style="opacity:0.2;">
			<path d="M114.708,371.692c-0.007,1.643,1.341,3.078,3.011,3.18l32.135,2.046c0.511,0.033,1.051,0.213,1.575,0.456l-0.037-20.933
				c-0.523-0.244-1.085-0.411-1.616-0.433l-32.123-2.026c-1.512-0.111-2.762-1.328-2.977-2.789L114.708,371.692z M140.572,316.927
				l0.021-0.012c-0.009,0.551,0.322,1.125,0.955,1.607l11.055,7.933c0.638-0.504,1.163-1.108,1.518-1.723
				c1.691-3.081,3.84-6.125,6.475-9.039c0.108-0.145,0.216-0.289,0.356-0.425c0.298-0.335,0.52-0.709,0.644-1.109
				c0.035-0.129,0.07-0.259,0.092-0.409c0.037-0.267,0.022-0.531-0.027-0.804c-0.078-0.419-0.283-0.82-0.601-1.182
				c-0.115-0.152-0.283-0.301-0.459-0.418l-19.111-13.746c-0.177-0.117-0.301-0.237-0.436-0.377
				c-0.192-0.191-0.342-0.404-0.387-0.623c-0.097-0.217-0.143-0.437-0.123-0.64l-0.02,0.012L140.572,316.927z M140.584,408.607
				c0.014,0.593,0.398,1.164,1.134,1.586l24.103,13.923c0.989,0.577,2.422,0.788,3.728,0.635l-0.035-20.881
				c-1.305,0.154-2.749-0.078-3.738-0.655l-24.124-13.911c-0.671-0.405-1.052-0.923-1.127-1.48L140.584,408.607z M298.103,412.467
				c0.863,0.075,1.733,0.256,2.397,0.555l24.434,11.328c0.632,0.291,1.402,0.393,2.188,0.431l-0.054-20.869
				c-0.796-0.005-1.568-0.16-2.18-0.462l-24.436-11.328c-0.664-0.3-1.513-0.492-2.409-0.576L298.103,412.467z M227.23,437.921
				c0.657,1.042,1.846,1.776,3.107,1.785l35.438,0.004c0.783-0.016,1.519-0.303,2.147-0.776l-0.026-20.913
				c-0.618,0.493-1.385,0.772-2.169,0.787l-35.469-0.012c-1.165,0.017-2.287-0.647-2.968-1.592L227.23,437.921z"/>
		</g>
		<g>
			<path id="XMLID_00000052785154362531459540000001874375052816255374_" style="fill:#BA68C8;" d="M165.766,280.419l-24.113,13.922
				c-1.439,0.831-1.512,2.291-0.163,3.262l19.109,13.749c1.349,0.97,1.475,2.697,0.354,3.923c-2.791,3.053-5.062,6.222-6.823,9.464
				c-0.793,1.46-2.682,2.777-4.34,2.883l-32.132,2.033c-1.658,0.104-3.003,1.537-3.003,3.198v17.926
				c0,1.662,1.344,3.094,3.002,3.199l32.132,2.033c1.659,0.106,3.548,1.424,4.341,2.884c1.76,3.242,4.031,6.411,6.823,9.464
				c1.121,1.226,0.994,2.951-0.355,3.921l-19.108,13.75c-1.349,0.97-1.276,2.431,0.163,3.261l24.112,13.921
				c1.439,0.831,3.828,0.938,5.335,0.24l24.442-11.323c1.508-0.698,4.007-0.829,5.593-0.333c6.089,1.903,12.452,3.404,18.975,4.511
				c1.639,0.278,3.222,1.799,3.531,3.431l3.058,16.108c0.31,1.632,1.908,2.955,3.57,2.955l35.454,0
				c1.661-0.001,3.259-1.323,3.57-2.956l3.057-16.106c0.31-1.632,1.895-3.154,3.533-3.432c6.522-1.107,12.886-2.609,18.975-4.512
				c1.586-0.496,4.082-0.364,5.59,0.334l24.441,11.324c1.508,0.699,3.897,0.592,5.336-0.24l24.112-13.921
				c1.439-0.831,1.512-2.291,0.163-3.261l-19.109-13.749c-1.349-0.971-1.475-2.697-0.354-3.923c2.792-3.053,5.063-6.221,6.824-9.464
				c0.794-1.46,2.683-2.777,4.342-2.883l32.131-2.033c1.658-0.105,3.003-1.536,3.003-3.198l-0.001-17.925
				c-0.001-1.661-1.345-3.094-3.003-3.199l-32.13-2.035c-1.659-0.105-3.549-1.423-4.343-2.884c-1.762-3.242-4.033-6.41-6.824-9.463
				c-1.121-1.227-0.994-2.952,0.355-3.922l19.109-13.75c1.349-0.971,1.276-2.431-0.163-3.262l-24.113-13.921
				c-1.439-0.83-3.828-0.938-5.336-0.239l-24.442,11.323c-1.508,0.699-4.006,0.829-5.593,0.333
				c-6.087-1.904-12.45-3.403-18.971-4.51c-1.638-0.279-3.223-1.799-3.533-3.431l-3.06-16.107c-0.309-1.633-1.908-2.956-3.57-2.956
				l-35.452-0.001c-1.661,0.001-3.26,1.324-3.569,2.956l-3.058,16.107c-0.31,1.632-1.895,3.153-3.533,3.432
				c-6.524,1.108-12.887,2.608-18.976,4.511c-1.586,0.495-4.082,0.364-5.59-0.334l-24.441-11.323
				C169.593,279.481,167.205,279.589,165.766,280.419z M305.723,308.487c31.882,18.407,31.883,48.254,0.002,66.661
				c-31.882,18.407-83.576,18.405-115.458-0.002c-31.882-18.408-31.882-48.251,0-66.659
				C222.15,290.08,273.84,290.081,305.723,308.487z"/>
		</g>
		<g style="opacity:0.3;">
			<path id="XMLID_00000169550909348658233570000009056907293934783930_" style="fill:#FFFFFF;" d="M165.766,280.419l-24.113,13.922
				c-1.439,0.831-1.512,2.291-0.163,3.262l19.109,13.749c1.349,0.97,1.475,2.697,0.354,3.923c-2.791,3.053-5.062,6.222-6.823,9.464
				c-0.793,1.46-2.682,2.777-4.34,2.883l-32.132,2.033c-1.658,0.104-3.003,1.537-3.003,3.198v17.926
				c0,1.662,1.344,3.094,3.002,3.199l32.132,2.033c1.659,0.106,3.548,1.424,4.341,2.884c1.76,3.242,4.031,6.411,6.823,9.464
				c1.121,1.226,0.994,2.951-0.355,3.921l-19.108,13.75c-1.349,0.97-1.276,2.431,0.163,3.261l24.112,13.921
				c1.439,0.831,3.828,0.938,5.335,0.24l24.442-11.323c1.508-0.698,4.007-0.829,5.593-0.333c6.089,1.903,12.452,3.404,18.975,4.511
				c1.639,0.278,3.222,1.799,3.531,3.431l3.058,16.108c0.31,1.632,1.908,2.955,3.57,2.955l35.454,0
				c1.661-0.001,3.259-1.323,3.57-2.956l3.057-16.106c0.31-1.632,1.895-3.154,3.533-3.432c6.522-1.107,12.886-2.609,18.975-4.512
				c1.586-0.496,4.082-0.364,5.59,0.334l24.441,11.324c1.508,0.699,3.897,0.592,5.336-0.24l24.112-13.921
				c1.439-0.831,1.512-2.291,0.163-3.261l-19.109-13.749c-1.349-0.971-1.475-2.697-0.354-3.923c2.792-3.053,5.063-6.221,6.824-9.464
				c0.794-1.46,2.683-2.777,4.342-2.883l32.131-2.033c1.658-0.105,3.003-1.536,3.003-3.198l-0.001-17.925
				c-0.001-1.661-1.345-3.094-3.003-3.199l-32.13-2.035c-1.659-0.105-3.549-1.423-4.343-2.884c-1.762-3.242-4.033-6.41-6.824-9.463
				c-1.121-1.227-0.994-2.952,0.355-3.922l19.109-13.75c1.349-0.971,1.276-2.431-0.163-3.262l-24.113-13.921
				c-1.439-0.83-3.828-0.938-5.336-0.239l-24.442,11.323c-1.508,0.699-4.006,0.829-5.593,0.333
				c-6.087-1.904-12.45-3.403-18.971-4.51c-1.638-0.279-3.223-1.799-3.533-3.431l-3.06-16.107c-0.309-1.633-1.908-2.956-3.57-2.956
				l-35.452-0.001c-1.661,0.001-3.26,1.324-3.569,2.956l-3.058,16.107c-0.31,1.632-1.895,3.153-3.533,3.432
				c-6.524,1.108-12.887,2.608-18.976,4.511c-1.586,0.495-4.082,0.364-5.59-0.334l-24.441-11.323
				C169.593,279.481,167.205,279.589,165.766,280.419z M305.723,308.487c31.882,18.407,31.883,48.254,0.002,66.661
				c-31.882,18.407-83.576,18.405-115.458-0.002c-31.882-18.408-31.882-48.251,0-66.659
				C222.15,290.08,273.84,290.081,305.723,308.487z"/>
		</g>
	</g>
</g>
<g id="Screwdriver_2">
	<g id="Screwdriver">
		<g id="Screwdriver_1_">
			<path id="XMLID_28213_" style="fill:#BA68C8;" d="M96.655,399.474l-11.214,19.422l-37.837-21.845
				c-1.554-0.776-2.532-2.589-2.532-5.236c0-5.061,3.553-11.215,7.936-13.745c2.194-1.267,4.179-1.385,5.616-0.553v0L96.655,399.474
				z"/>
			<path id="XMLID_28212_" style="fill:#BA68C8;" d="M98.911,403.501l0.005-0.009c0.165,2.959,4.353,3.596,4.353,3.596
				l-7.935,13.745c0,0-2.645-3.26-5.291-1.972l0.005-0.009c-3.912,1.691-6.939-0.407-6.939-5.077c0-5.061,3.553-11.215,7.936-13.745
				C95.089,397.695,98.419,399.268,98.911,403.501z"/>
			<path id="XMLID_28211_" style="opacity:0.05;" d="M98.911,403.501l0.005-0.009c0.165,2.959,4.353,3.596,4.353,3.596
				l-7.935,13.745c0,0-2.645-3.26-5.291-1.972l0.005-0.009c-3.912,1.691-6.939-0.407-6.939-5.077c0-5.061,3.553-11.215,7.936-13.745
				C95.089,397.695,98.419,399.268,98.911,403.501z"/>
			<path id="XMLID_28210_" style="opacity:0.05;" d="M101.368,406.497c0.989,0.448,1.9,0.59,1.9,0.59l-7.935,13.745
				c0,0-0.58-0.708-1.462-1.334C94.076,414.699,97.315,409.082,101.368,406.497z"/>
			<path id="XMLID_28209_" style="fill:#BA68C8;" d="M111.525,408.059l-0.663,1.149c0.221,0.715,0.342,1.536,0.342,2.462
				c0,5.061-3.553,11.215-7.936,13.745c-0.801,0.462-1.574,0.769-2.303,0.934l-0.664,1.149l-2.645-1.527l0,0
				c-1.436-0.829-2.324-2.607-2.324-5.138c0-5.061,3.553-11.215,7.935-13.745c2.192-1.265,4.176-1.385,5.612-0.556l0,0
				L111.525,408.059z"/>
			<g id="XMLID_28206_">
				<path id="XMLID_28208_" style="fill:#BA68C8;" d="M97.978,422.36c0-5.061,3.553-11.215,7.936-13.745
					c4.383-2.53,7.936-0.479,7.936,4.582c0,5.061-3.553,11.215-7.936,13.745C101.531,429.472,97.978,427.421,97.978,422.36z"/>
				<path id="XMLID_28207_" style="opacity:0.15;" d="M97.978,422.36c0-5.061,3.553-11.215,7.936-13.745
					c4.383-2.53,7.936-0.479,7.936,4.582c0,5.061-3.553,11.215-7.936,13.745C101.531,429.472,97.978,427.421,97.978,422.36z"/>
				<path style="opacity:0.15;" d="M109.007,424.434c-0.619,0.66-1.281,1.247-1.969,1.757l-1.859-5.296l2.241-1.65L109.007,424.434z
					"/>
			</g>
			<path id="XMLID_28205_" style="opacity:0.2;" d="M51.529,386.372L51.529,386.372c-0.604,1.046-0.246,2.384,0.801,2.988
				l27.028,15.605c1.046,0.604,2.384,0.246,2.988-0.801l0,0c0.604-1.046,0.246-2.384-0.801-2.988l-27.028-15.604
				C53.471,384.968,52.133,385.326,51.529,386.372z"/>
			<path id="XMLID_28203_" style="opacity:0.2;" d="M56.405,380.56L56.405,380.56c-0.853,0.716-0.81,1.72,0.096,2.243l27.535,15.898
				c0.906,0.523,2.332,0.367,3.185-0.349l0,0c0.853-0.716,0.81-1.72-0.096-2.243l-27.535-15.898
				C58.685,379.688,57.258,379.844,56.405,380.56z"/>
			<path id="XMLID_28202_" style="opacity:0.2;" d="M48.934,393.502L48.934,393.502c0.193-1.097,1.085-1.561,1.99-1.038
				l27.536,15.898c0.906,0.523,1.484,1.836,1.29,2.932l0,0c-0.193,1.097-1.084,1.561-1.99,1.038l-27.535-15.897
				C49.318,395.911,48.74,394.598,48.934,393.502z"/>
			<g id="XMLID_28195_">
				<path id="XMLID_28199_" style="fill:#455A64;" d="M175.505,454.416v5.291l-13.226-4.301c0,0-2.645-4.863-5.291-6.39
					l-50.26-29.018l-1.549-4.394l1.549-0.897l50.26,29.018c2.645,1.527,5.29-0.281,5.29-0.281L175.505,454.416z"/>
				<path id="XMLID_28198_" style="fill:#37474F;" d="M173.956,455.312v5.291l-13.227-4.301c0,0-2.645-4.863-5.29-6.39
					l-50.26-29.018v-5.291l50.26,29.018c2.645,1.527,5.29-0.281,5.29-0.281L173.956,455.312z"/>
				<polygon id="XMLID_28197_" style="fill:#263238;" points="173.956,460.603 175.505,459.707 175.505,454.416 173.956,455.312 
									"/>
				<polygon id="XMLID_28196_" style="fill:#455A64;" points="175.505,454.416 173.956,455.312 160.729,444.341 162.278,443.444 
									"/>
			</g>
		</g>
	</g>
</g>
<g id="Screwdriver_1">
	<g id="Screwdriver_2_">
		<path style="fill:#E0E0E0;" d="M375.761,422.14c-3.146-1.816-5.696-0.344-5.696,3.289c0,3.633,2.55,8.05,5.696,9.866
			c3.146,1.816,5.696,0.344,5.696-3.289C381.457,428.374,378.907,423.956,375.761,422.14z"/>
		<path style="fill:#BA68C8;" d="M435.489,379.327l0.007,0.012c1.655-1.157,4.041-1.115,6.702,0.422
			c4.996,2.884,9.045,9.899,9.045,15.667c0,3.187-1.24,5.32-3.189,6.111l0.002,0.004c-4.147,2.325-9.259,0.081-9.259,0.081
			l-7.25-14.415C431.547,383.353,433.067,380.783,435.489,379.327z"/>
		<path style="opacity:0.1;" d="M435.489,379.327l0.007,0.012c1.655-1.157,4.041-1.115,6.702,0.422
			c4.996,2.884,9.045,9.899,9.045,15.667c0,3.187-1.24,5.32-3.189,6.111l0.002,0.004c-4.147,2.325-9.259,0.081-9.259,0.081
			l-7.25-14.415C431.547,383.353,433.067,380.783,435.489,379.327z"/>
		<path style="opacity:0.1;" d="M440.76,394.478c6.176,0.218,9.429-4.384,9.466-4.435c0.646,1.81,1.016,3.654,1.016,5.385
			c0,3.187-1.24,5.32-3.189,6.111l0.002,0.004c-3.471,1.946-7.607,0.694-8.867,0.233c-0.128-0.081-0.258-0.142-0.393-0.153
			l-2.343-4.659L440.76,394.478z"/>
		<path style="fill:#BA68C8;" d="M357.722,433.974L357.722,433.974c0,0,12.648-11.45,13.982-12.216
			c1.321-0.758,58.676-33.876,59.84-34.549c0.001-0.001,0.002-0.001,0.004-0.002c0.009-0.005,0.024-0.014,0.024-0.014l0.001,0.002
			c1.029-0.579,2.441-0.489,4.001,0.412c3.146,1.816,5.696,6.234,5.696,9.866c0,1.813-0.635,3.088-1.663,3.684l0,0
			c0,0-0.005,0.003-0.005,0.003c0,0,0,0,0,0c-0.247,0.143-57.355,33.124-59.82,34.537c-2.47,1.416-17.509,5.976-17.509,5.976v0
			c-0.568,0.293-1.332,0.234-2.176-0.253c-1.75-1.01-3.169-3.468-3.169-5.489C356.928,435.005,357.229,434.335,357.722,433.974z"/>
		<path style="opacity:0.1;" d="M356.928,435.933c0-0.928,0.301-1.598,0.794-1.958c0,0,11.689-10.582,13.774-12.077
			c1.044-0.759,2.567-0.738,4.265,0.242c3.146,1.816,5.696,6.234,5.696,9.866c0,1.821-0.641,3.099-1.676,3.692c0,0,0,0-0.001,0
			c-2.47,1.416-17.509,5.976-17.509,5.976v0c-0.568,0.293-1.332,0.234-2.176-0.253C358.347,440.411,356.928,437.953,356.928,435.933
			z"/>
		<path style="fill:#37474F;" d="M408.269,419.255c1.033-0.594,1.673-1.871,1.673-3.69c0-3.633-2.55-8.05-5.696-9.866
			c-1.573-0.908-2.997-0.994-4.028-0.399c0,0-3.302,1.338-14.039,6.974c-10.737,5.635-8.77,6.193-8.77,6.193l0.775-0.444
			c1.031-0.595,2.455-0.509,4.028,0.399c3.146,1.816,5.696,6.234,5.696,9.866c0,1.816-0.638,3.093-1.668,3.688l-1.035,0.595
			c0,0,1.401,0.452,8.795-3.854C401.392,424.412,408.269,419.255,408.269,419.255z"/>
		<path style="fill:#455A64;" d="M404.246,405.698c-1.573-0.908-2.997-0.994-4.028-0.399c0,0-3.302,1.338-14.039,6.974
			c-10.737,5.635-8.77,6.193-8.77,6.193l0.775-0.444c1.031-0.595,2.455-0.509,4.028,0.399c0.864,0.499,1.679,1.198,2.413,2.018
			l22.036-12.722C405.926,406.897,405.11,406.197,404.246,405.698z"/>
		<path style="opacity:0.25;" d="M363.266,439.592c0-2.021-1.419-4.478-3.169-5.489c-1.75-1.01-3.169-0.191-3.169,1.83
			c0,2.021,1.419,4.478,3.169,5.489C361.847,442.432,363.266,441.612,363.266,439.592z"/>
		<path style="fill:#455A64;" d="M323.637,458.586c0,0.126,0.084,0.28,0.189,0.336c0.049,0.028,0.084,0.028,0.119,0.021v0.007
			c0.28-0.098,4.551-1.669,5.883-2.23c0.182-0.07,0.309-0.126,0.365-0.161l30.557-17.641c0.175-0.098,0.287-0.309,0.287-0.61
			c0-0.302-0.105-0.638-0.273-0.932c-0.175-0.295-0.407-0.547-0.666-0.701c-0.259-0.147-0.498-0.161-0.666-0.063l-30.571,17.648
			c-0.175,0.105-0.463,0.309-0.814,0.582c-1.5,1.143-4.172,3.429-4.375,3.632l0.007,0.007
			C323.651,458.502,323.637,458.537,323.637,458.586z"/>
		<path style="fill:#37474F;" d="M323.637,458.586c0,0.126,0.084,0.28,0.189,0.336c0.049,0.028,0.084,0.028,0.119,0.021v0.007
			c0.28-0.098,4.551-1.669,5.883-2.23c-0.393-0.371-1.241-0.168-2.061,0.196c-0.912,0.414-3.653,1.886-3.8,1.704
			c-0.147-0.182,1.802-1.339,2.966-2.188c1.164-0.848,1.437-1.536,1.115-1.592c-1.5,1.143-4.172,3.429-4.375,3.632l0.007,0.007
			C323.651,458.502,323.637,458.537,323.637,458.586z"/>
		<path style="opacity:0.2;fill:#FFFFFF;" d="M359.764,436.998c0,0-30.461,17.505-30.91,17.844
			c-0.233,0.175-0.437,0.606-0.955,1.082c-0.48,0.442-1.432,1.101-2.436,1.738c-1.956,1.242,0.514,0.141,2.698-1.34
			c0.503-0.341,0.597-1.161,1.159-1.481c2.544-1.444,31.1-17.155,31.1-17.155S360.125,437.086,359.764,436.998z"/>
	</g>
</g>
<g id="Character">
	<g id="Character_00000116953848070671795180000007265643281608978090_">
		<g id="Bottom_8_">
			<g>
				<path style="fill:#FFBDA7;" d="M259.428,328.417l-2.003-17.832l20.309-1.829c0,0-0.859,13.745-0.736,20.049
					c0.058,2.971,2.158,8.561,2.158,8.561s-8.501,4.412-12.913,2.607c-4.412-1.805-7.33-8.76-7.225-10.033
					C259.123,328.667,259.428,328.417,259.428,328.417z"/>
				<path style="fill:#263238;" d="M302.695,356.478c0.28,0.005,0.49,2.59-1.056,3.857c-1.785,1.462-7.455,4.258-14.256,3.272
					c-6.801-0.986-10.453-3.126-13.139-5.422c-2.685-2.295-6.449-5.532-9.52-6.255c-2.852-0.672-6.692-3.024-7.593-3.912
					c-0.9-0.888-0.701-4.762-0.701-4.762L302.695,356.478z"/>
				<g id="XMLID_00000067200682157811173680000002267376735235637683_">
					<path style="fill:#455A64;" d="M259.426,328.387c0,0-0.855-0.005-1.048,0.889c-0.23,1.065-0.514,4.167-0.998,5.912
						c-0.671,2.426-1.184,7.413-0.845,9.405c0.339,1.992,5.735,4.474,8.698,5.644c3.027,1.196,6.508,3.613,9.555,6.179
						c3.154,2.656,9.842,5.478,14.286,5.523c5.258,0.053,11.207-1.521,12.608-3.898c1.733-2.941,3.02-6.37-4.707-10.061
						c-1.463-0.699-6.589-3.809-8.335-4.934c-4.724-3.045-8.035-5.821-10.136-11.101c-0.246-0.617-0.502-1.3-1.091-1.622
						c-0.451-0.247-1-0.222-1.513-0.161c-1.302,0.157-6.494,0.771-7.688,1.306c-1.055,0.473-2.55,1.019-2.552,2.339
						c-0.001,0.459,0.126,0.909,0.269,1.346c0.088,0.271,0.155,0.63-0.087,0.786c-0.229,0.146-0.525-0.03-0.725-0.213
						c-0.803-0.734-1.383-1.667-2.055-2.52c-0.36-0.456-1.506-1.916-1.964-2.279c-0.416-0.33-0.951-0.501-1.319-0.874
						C259.312,329.58,259.436,329.006,259.426,328.387z"/>
				</g>
				<path style="fill:#37474F;" d="M274.787,356.417c-1.339-1.128-2.762-2.219-4.194-3.198l0-0.007c0,0,9.064,5.645,12.814,3.219
					c2.416-1.563,1.318-3.533,1.272-4.157c-0.046-0.624,8.46-4.876,10.783-5.108v0c0.639,0.362,1.167,0.673,1.512,0.816
					c6.042,2.501,6.794,5.605,5.71,9.472c-1.401,2.377-6.725,4.764-13.52,4.647C284.721,362.023,277.941,359.073,274.787,356.417z"
					/>
				<path style="fill:#37474F;" d="M284.072,350.446c4.811,1.992,2.727,2.848,1.366,3.015c-1.361,0.168-9.431-4.665-14.334-8.627
					c-5.115-4.133-9.057-9.63-10.958-11.148c-0.708-0.566-1.469-1.26-2.146-1.907c0.147-1.048,0.268-2.003,0.376-2.504
					c0.193-0.894,1.049-0.889,1.049-0.889c0.011,0.619-0.113,1.193,0.352,1.666c0.368,0.373,0.903,0.544,1.319,0.874
					c0.458,0.364,1.604,1.823,1.964,2.279c0.671,0.853,1.252,1.785,2.055,2.519C269.249,341.088,279.261,348.454,284.072,350.446z"
					/>
				<g>
					<g>
						<path style="fill:#263238;" d="M285.107,352.754c-0.107-0.002-0.214-0.038-0.302-0.112c-0.202-0.168-0.228-0.466-0.055-0.666
							c1.399-1.626,7.954-5.428,11.513-4.981c0.264,0.032,0.45,0.269,0.416,0.527c-0.033,0.258-0.246,0.435-0.536,0.41
							c-3.323-0.41-9.554,3.366-10.662,4.655C285.385,352.699,285.246,352.756,285.107,352.754z"/>
					</g>
					<g>
						<path style="fill:#263238;" d="M280.927,350.118c-0.107-0.002-0.214-0.038-0.302-0.112c-0.202-0.169-0.226-0.466-0.055-0.666
							c1.398-1.625,7.951-5.424,11.513-4.979c0.263,0.032,0.45,0.269,0.415,0.527c-0.033,0.258-0.266,0.442-0.535,0.41
							c-3.325-0.405-9.554,3.365-10.662,4.653C281.205,350.064,281.066,350.121,280.927,350.118z"/>
					</g>
					<g>
						<path style="fill:#263238;" d="M276.743,347.619c-0.107-0.002-0.214-0.038-0.302-0.112c-0.202-0.168-0.226-0.466-0.055-0.666
							c1.399-1.626,7.954-5.431,11.513-4.98c0.263,0.032,0.45,0.269,0.416,0.528c-0.033,0.258-0.262,0.442-0.536,0.41
							c-3.325-0.41-9.554,3.364-10.662,4.653C277.022,347.565,276.883,347.621,276.743,347.619z"/>
					</g>
					<g>
						<path style="fill:#263238;" d="M272.877,344.78c-0.107-0.002-0.214-0.038-0.301-0.112c-0.203-0.168-0.226-0.466-0.055-0.666
							c1.398-1.626,7.968-5.426,11.513-4.979c0.263,0.032,0.45,0.269,0.416,0.527c-0.033,0.258-0.264,0.441-0.536,0.41
							c-3.32-0.407-9.553,3.364-10.662,4.653C273.155,344.725,273.016,344.782,272.877,344.78z"/>
					</g>
					<g>
						<path style="fill:#263238;" d="M269.09,341.942c-0.104-0.002-0.209-0.037-0.296-0.107c-0.205-0.165-0.233-0.463-0.066-0.664
							c1.924-2.306,8.774-5.459,12.331-5.013c0.263,0.032,0.45,0.269,0.416,0.527c-0.033,0.259-0.265,0.435-0.536,0.41
							c-3.203-0.399-9.763,2.632-11.471,4.675C269.372,341.886,269.23,341.944,269.09,341.942z"/>
					</g>
				</g>
			</g>
			<g>
				<path style="fill:#FFBDA7;" d="M226.783,332.745l4.831-21.414l-21.125-3.295l-0.339,21.14c0,0-1.613,5.685-0.423,7.64
					c1.19,1.955,13.882,4.011,15.045,2.709C225.934,338.223,226.783,332.745,226.783,332.745z"/>
				<path style="fill:#263238;" d="M224.674,366.491c-0.556,4.803-1.563,7.909-3.641,10.511c-2.079,2.602-5.781,3.046-9.447,1.761
					c-3.665-1.285-8.302-4.089-9.159-8.396c-0.857-4.307-0.502-7.143,0.56-11.531L224.674,366.491z"/>
				<g id="XMLID_00000085228087725412101860000017467562136452365990_">
					<path style="fill:#455A64;" d="M210.15,329.176c-1.532-0.081-1.117,3.7-1.84,10.177c-0.781,7.006-3.94,12.498-5.064,18.115
						c-1.284,6.418-1.04,9.386,1.352,13.654c2.391,4.269,11.353,9.266,16.142,4.158c3.903-4.164,4.306-9.262,4.292-15.83
						c-0.016-6.789-0.087-11.572,0.475-16.654c0.538-4.857,2.575-9.345,1.276-10.051c-0.138,0.706-1.439,5.626-2.295,5.547
						c-0.049-0.635-0.005-1.216,0.073-1.846c0.068-0.548,0.045-1.159-0.341-1.63c-0.389-0.475-1.85-1.068-2.463-1.252
						c-1.49-0.448-4.151-1.004-5.672-1.313c-0.757-0.154-1.519-0.279-2.282-0.365c-0.619-0.069-1.351-0.113-1.947,0.008
						c-0.366,0.074-0.71,0.26-0.859,0.563c-0.11,0.224-0.104,0.485-0.116,0.736c-0.022,0.452-0.109,0.896-0.257,1.318
						c-0.065,0.186-0.227,0.403-0.443,0.33c-0.176-0.06-0.236-0.264-0.229-0.426C209.983,333.626,210.098,329.59,210.15,329.176z"/>
				</g>
				<path style="fill:#37474F;" d="M203.684,355.651c-0.195,0.925-1.402,7.057,0.462,8.417c2.017,1.472,3.398-3.296,3.398-3.296
					s4.937-0.725,11.894,2.892c-0.414,0.968,0.516,4.442,2.497,3.975c1.967-0.464,3.081-7.53,3.096-7.622
					c-0.012,6.294-0.501,11.221-4.29,15.264c-4.788,5.107-13.751,0.111-16.142-4.158c-2.392-4.269-2.636-7.236-1.352-13.654
					C203.375,356.825,203.523,356.226,203.684,355.651z"/>
				<path style="fill:#37474F;" d="M208.079,361.259c-0.147,2.359-2.741,1.239-2.692-2.111c0.049-3.35,1.807-11.486,2.472-16.964
					c0.444-7.881,0.758-13.088,2.29-13.008c-0.01,0.079-0.012,0.16-0.02,0.239c0,0-0.158,4.49-0.18,5
					c-0.275,4.814-0.337,14.169-1.022,18.518C208.243,357.281,208.226,358.9,208.079,361.259z"/>
				<path style="fill:#37474F;" d="M218.618,363.498c0.615-2.259,1.114-3.776,1.861-8.112c0.742-4.303,3.318-12.919,4.594-17.552
					c0.413-0.761,1.71-5.089,1.71-5.089c1.06,0.3,0,4.428-0.496,6.359c-0.496,1.932-1.102,4.002-1.722,6.773
					c-1.585,5.461-1.736,13.66-2.758,16.804C220.785,365.826,218.003,365.758,218.618,363.498z"/>
				<g>
					<g>
						<path style="fill:#263238;" d="M219.578,363.874c-0.07-0.015-0.139-0.042-0.204-0.079c-0.053-0.033-5.472-3.221-11.709-2.52
							c-0.307,0.033-0.608-0.165-0.675-0.441c-0.068-0.277,0.126-0.529,0.432-0.564c6.672-0.75,12.283,2.558,12.52,2.701
							c0.27,0.162,0.363,0.477,0.205,0.705C220.03,363.848,219.799,363.921,219.578,363.874z"/>
					</g>
					<g>
						<path style="fill:#263238;" d="M221.104,358.902c-0.063-0.014-0.125-0.036-0.186-0.069c-0.06-0.033-6.164-3.384-13.11-2.816
							c-0.307,0.021-0.602-0.181-0.661-0.46c-0.057-0.278,0.147-0.525,0.454-0.55c7.346-0.596,13.587,2.835,13.85,2.98
							c0.276,0.155,0.381,0.469,0.234,0.702C221.571,358.871,221.334,358.95,221.104,358.902z"/>
					</g>
					<g>
						<path style="fill:#263238;" d="M208.418,351.19c-0.213-0.045-0.399-0.195-0.464-0.396c-0.086-0.276,0.085-0.541,0.386-0.594
							c6.946-1.216,13.558,2.695,13.837,2.863c0.271,0.162,0.363,0.477,0.205,0.706c-0.158,0.227-0.508,0.274-0.774,0.117
							c-0.063-0.037-6.487-3.829-12.95-2.691C208.578,351.21,208.497,351.207,208.418,351.19z"/>
					</g>
					<g>
						<path style="fill:#263238;" d="M209.036,346.645c-0.209-0.044-0.393-0.191-0.46-0.387c-0.093-0.275,0.073-0.543,0.372-0.6
							c7.646-1.467,13.858,2.683,14.118,2.859c0.26,0.177,0.33,0.495,0.156,0.712c-0.174,0.217-0.533,0.25-0.786,0.073
							c-0.057-0.04-6.035-4.017-13.151-2.654C209.202,346.664,209.117,346.662,209.036,346.645z"/>
					</g>
					<g>
						<path style="fill:#263238;" d="M209.754,341.541c-0.206-0.044-0.388-0.187-0.458-0.381c-0.097-0.273,0.065-0.544,0.363-0.605
							c7.17-1.476,13.929,2.825,14.212,3.012c0.265,0.17,0.342,0.488,0.174,0.71c-0.166,0.222-0.516,0.266-0.782,0.09
							c-0.066-0.042-6.595-4.195-13.253-2.823C209.924,341.56,209.837,341.559,209.754,341.541z"/>
					</g>
				</g>
			</g>
			<g>
				<path id="XMLID_353_" style="fill:#37474F;" d="M217.25,171.658c-2.906,38-4.186,94.695-4.186,94.695
					c-0.259,2.885-1.902,6.925-3.241,21.159c-1.413,15.016-0.348,32.411-0.348,32.411s12.694,5.42,20.583,2.619
					c0,0,7.467-28.115,11.57-45.8c3.882-16.737,6.741-42.91,6.741-42.91l4.609,25.214c0,0-0.579,10.833-0.308,18.414
					c0.316,8.818,5.076,42.579,5.076,42.579s11.794,7.063,20,0.331c0,0,3.994-49.552,4.261-60.158
					c0.522-20.803,1.118-61.719-1.34-88.556H217.25z"/>
				<path id="XMLID_352_" style="fill:#263238;" d="M248.367,233.833l4.148-27.03c0,0,9.556-1.457,14.466-6.182
					c0,0-3.179,6.263-12.194,8.68l-4.118,24.603l2.307,25.143L248.367,233.833z"/>
			</g>
			<g>
				<path style="fill:#455A64;" d="M209.256,320.657c3.545,2.78,13.869,5.15,20.934,2.595l1.423-5.966
					c-5.334,1.796-16.322,0.657-22.237-2.993L209.256,320.657z"/>
			</g>
			<g>
				<path style="fill:#455A64;" d="M257.744,320.734c2.392,2.426,13.479,4.434,20.028,0.596l0.484-5.988
					c-4.965,2.766-16.373,2.294-21.238-0.546L257.744,320.734z"/>
			</g>
			<g>
				<g>
					<path style="fill:#455A64;" d="M213.889,231.014c0,0-1.1,26.741-1.024,28.689s14.611,5.798,14.988,4.561
						c0.628-2.061,0.471-6.657,1.726-28.809C217.527,233.896,213.889,231.014,213.889,231.014z"/>
				</g>
				<path style="fill:#37474F;" d="M227.312,243.076c-0.438-0.146-0.916-0.103-1.371-0.114c-0.533-0.013-1.066-0.037-1.598-0.081
					c-1.125-0.094-2.245-0.266-3.348-0.514c-1.246-0.28-2.476-0.657-3.67-1.115c-0.974-0.373-1.896-0.878-2.871-1.242
					c-0.092-0.034-0.107,0.143-0.048,0.186c0.924,0.675,2.02,1.138,3.07,1.561c0.989,0.398,2.002,0.721,3.035,0.978
					c1.099,0.274,2.215,0.472,3.339,0.593c0.562,0.06,1.126,0.101,1.691,0.123c0.534,0.02,1.297,0.142,1.779-0.127
					C227.393,243.283,227.402,243.107,227.312,243.076z"/>
				<path style="fill:#37474F;" d="M220.988,239.344c-0.14-0.275-0.247-0.446-0.56-0.483c-0.255-0.03-0.521,0.034-0.732,0.186
					c-0.199,0.144-0.331,0.361-0.361,0.606c-0.051,0.419,0.164,0.805,0.52,1.005c0.308,0.173,0.744,0.2,1.04-0.017
					c0.195-0.143,0.25-0.376,0.253-0.611C221.151,239.796,221.094,239.552,220.988,239.344z M220.712,240.16
					c-0.161,0.217-0.508,0.266-0.732,0.137c-0.371-0.214-0.295-0.933,0.16-0.981c0.142-0.015,0.292,0.017,0.406,0.106
					C220.739,239.573,220.875,239.941,220.712,240.16z"/>
			</g>
		</g>
		<g id="Top_00000148625810106038889340000010420936007527447193_">
			<g>
				<path style="fill:#FFA8A7;" d="M286.495,119.392c3.498,5.594,12.393,17.655,12.393,17.655s18.571-12.88,20.348-15.357
					c3.563-4.966,4.431-9.069,9.087-10.269c4.656-1.2,10.531-2.611,10.531-2.611l-4.382,21.801
					c-2.002,2.272-4.472,1.323-9.465,6.224c-3.711,3.642-12.763,11.432-20.581,17.395c-6.571,5.012-11.281,2.283-14.34-1.44
					c-7.49-9.117-13.818-16.457-13.818-16.457l-11.142-34.071C275.395,103.394,279.646,108.439,286.495,119.392z"/>
				<path style="fill:#263238;" d="M262.883,101.36c9.545-0.266,15.671,4.33,21.682,13.392c3.638,5.485,14.414,21.475,14.414,21.475
					l13.236-9.191c0,0,1.841,6.048,5.881,9.079c3.509,2.633,6.458,1.162,6.458,1.162s-5.096,5.949-14.298,13.403
					c-10.01,8.109-13.397,8.786-17.847,5.409c-2.202-1.671-3.657-3.498-7.843-8.33c-5.03-5.806-8.659-10.725-8.659-10.725
					L262.883,101.36z"/>
			</g>
			<g id="Chest_8_">
				<g>
					<path style="fill:#455A64;" d="M243.925,99.389c0,0-13.632,2.774-21.449,4.826c-2.668,0.7-4.992,8.294-3.855,23.99
						c0.458,6.315,0.947,18.987,1.001,23.715c0.076,6.696-3.785,28.656-3.785,28.656c20.651,12.694,59.233,8.58,66.634,1.782
						c0,0-1.616-37.024-1.875-41.515c-0.966-16.781-2.051-24.173-7.698-31.83c-3.826-5.188-10.015-7.652-10.015-7.652
						L243.925,99.389z"/>
				</g>
			</g>
			<g id="XMLID_293_">
				<path style="fill:#BA68C8;" d="M337.808,64.666l5.598,1.529L332.5,91.154l2.421,8.98l3.887-0.705l11.022-25.199l5.598,1.529
					c0.238,0.66,0.453,1.344,0.648,2.068c3.436,12.741-1.39,30.703-10.779,40.12c-4.737,4.751-9.719,6.407-13.938,5.256l0.001,0.001
					l-5.572-1.523c-0.344-0.093-0.681-0.21-1.014-0.34L216.774,228.207c-0.624,10.536-5.011,21.792-11.8,28.602
					c-3.521,3.531-7.171,5.354-10.554,5.599l-5.598-1.529l10.906-24.96l-2.421-8.98l-3.887,0.705l-11.022,25.198l-5.598-1.529
					c-0.239-0.66-0.453-1.344-0.648-2.068c-3.436-12.741,1.39-30.703,10.778-40.12c4.682-4.696,9.602-6.362,13.789-5.289l0-0.007
					l0.1,0.027c0.024,0.006,0.047,0.013,0.071,0.019l5.384,1.471l-0.016,0.006c0.402,0.101,0.792,0.243,1.18,0.393l108.016-106.88
					c0.624-10.536,5.011-21.792,11.801-28.602C330.775,66.733,334.426,64.911,337.808,64.666z"/>
				<path style="opacity:0.2;fill:#FFFFFF;" d="M337.808,64.666l5.598,1.529L332.5,91.154l2.421,8.98l3.887-0.705l11.022-25.199
					l5.598,1.529c0.238,0.66,0.453,1.344,0.648,2.068c3.436,12.741-1.39,30.703-10.779,40.12c-4.737,4.751-9.719,6.407-13.938,5.256
					l0.001,0.001l-5.572-1.523c-0.344-0.093-0.681-0.21-1.014-0.34L216.774,228.207c-0.624,10.536-5.011,21.792-11.8,28.602
					c-3.521,3.531-7.171,5.354-10.554,5.599l-5.598-1.529l10.906-24.96l-2.421-8.98l-3.887,0.705l-11.022,25.198l-5.598-1.529
					c-0.239-0.66-0.453-1.344-0.648-2.068c-3.436-12.741,1.39-30.703,10.778-40.12c4.682-4.696,9.602-6.362,13.789-5.289l0-0.007
					l0.1,0.027c0.024,0.006,0.047,0.013,0.071,0.019l5.384,1.471l-0.016,0.006c0.402,0.101,0.792,0.243,1.18,0.393l108.016-106.88
					c0.624-10.536,5.011-21.792,11.801-28.602C330.775,66.733,334.426,64.911,337.808,64.666z"/>
				<polygon style="opacity:0.4;fill:#BA68C8;" points="332.5,91.154 326.902,89.625 329.978,101.031 334.922,100.134 				"/>
				<polygon style="opacity:0.4;fill:#BA68C8;" points="193.42,227.644 187.822,226.115 196.652,224.513 197.307,226.939 				"/>
				<polygon id="XMLID_316_" style="opacity:0.4;fill:#BA68C8;" points="216.774,228.207 211.176,226.678 320.593,118.411 
					326.19,119.94 				"/>
				<path id="XMLID_305_" style="fill:#BA68C8;" d="M206.038,207.133L315.454,98.867c0.624-10.536,5.011-21.792,11.8-28.602
					c3.521-3.531,7.171-5.354,10.554-5.599l-10.906,24.96l3.076,11.406l8.83-1.602l11.022-25.199
					c0.238,0.66,0.453,1.344,0.648,2.068c3.436,12.741-1.39,30.703-10.779,40.12c-6.882,6.903-14.281,7.273-19.107,1.993
					L211.176,226.678c-0.624,10.535-5.011,21.792-11.8,28.602c-3.521,3.531-7.171,5.354-10.554,5.599l10.906-24.96l-3.076-11.406
					l-8.83,1.602L176.8,251.313c-0.239-0.66-0.453-1.344-0.648-2.068c-3.436-12.741,1.39-30.703,10.778-40.12
					C193.813,202.222,201.212,201.852,206.038,207.133z"/>
				<path id="XMLID_312_" style="opacity:0.6;fill:#FFFFFF;" d="M206.038,207.133L315.454,98.867
					c0.624-10.536,5.011-21.792,11.8-28.602c3.521-3.531,7.171-5.354,10.554-5.599l-10.906,24.96l3.076,11.406l8.83-1.602
					l11.022-25.199c0.238,0.66,0.453,1.344,0.648,2.068c3.436,12.741-1.39,30.703-10.779,40.12
					c-6.882,6.903-14.281,7.273-19.107,1.993L211.176,226.678c-0.624,10.535-5.011,21.792-11.8,28.602
					c-3.521,3.531-7.171,5.354-10.554,5.599l10.906-24.96l-3.076-11.406l-8.83,1.602L176.8,251.313
					c-0.239-0.66-0.453-1.344-0.648-2.068c-3.436-12.741,1.39-30.703,10.778-40.12C193.813,202.222,201.212,201.852,206.038,207.133
					z"/>
				<path style="opacity:0.2;fill:#BA68C8;" d="M307.526,113.359l-91.46,90.481c-2.188,2.166-3.405,6.076-2.717,8.735
					c0.687,2.658,3.018,3.058,5.206,0.892l91.484-90.524c2.188-2.166,3.399-6.067,2.705-8.713
					C312.05,111.583,309.714,111.193,307.526,113.359z"/>
				<path style="opacity:0.2;fill:#BA68C8;" d="M218.918,204.617l91.46-90.48c0.589-0.582,1.185-0.965,1.76-1.184
					c0.252,0.345,0.468,0.753,0.605,1.276c0.694,2.646-0.518,6.547-2.705,8.713l-91.484,90.524c-0.584,0.578-1.176,0.96-1.746,1.178
					c-0.254-0.348-0.471-0.762-0.608-1.292C215.513,210.694,216.73,206.783,218.918,204.617z"/>
				<polygon id="XMLID_302_" style="opacity:0.2;fill:#BA68C8;" points="197.307,226.939 196.652,224.513 187.822,226.115 
					176.8,251.313 182.398,252.843 193.42,227.644 				"/>
				<polygon style="opacity:0.2;fill:#FFFFFF;" points="337.808,64.665 326.902,89.625 329.978,101.031 325.906,89.649 				"/>
				<polygon style="opacity:0.2;fill:#FFFFFF;" points="188.822,260.879 200.976,235.931 196.652,224.513 199.728,235.919 				"/>
			</g>
			<g>
				<path style="fill:#F0997A;" d="M249.818,163.532c2.856-2.437,3.619-2.703,6.64-2.807c3.021-0.104,4.405-0.188,5.584-0.13
					c1.179,0.058,5.22,0.975,5.998,1.46c1.397,0.87-0.769,2.973-3.043,2.911c-2.274-0.061-5.234-0.369-5.234-0.369L249.818,163.532z
					"/>
				<path style="fill:#FFA8A7;" d="M222.144,104.728c-9.167,2.434-14.13,6.18-16.027,10.936c-3.355,8.413-10.87,34.61-12.047,41.453
					c-1.177,6.843-0.567,8.629,5.054,11.744c4.679,2.593,24.122,8.454,33.096,10.841c2.436,0.648,5.029,0.106,7.009-1.454
					l8.246-6.495l-34.04-16.081l7.709-23.089C221.145,132.583,228.179,115.531,222.144,104.728z"/>
				<path style="fill:#263238;" d="M222.476,104.215c-6.022,1.714-10.681,4.082-13.547,6.995c-4.056,4.122-3.51,4.041-8.895,21.056
					c-5.385,17.015-6.934,25.438-7.312,28.839c-0.378,3.401,0.078,4.9,5.355,7.815c5.277,2.915,20.05,6.708,20.05,6.708
					s0.249-5.438,2.114-9.882c1.864-4.444,4.533-4.718,4.533-4.718l-10.38-5.738c0,0,6.382-17.981,8.665-23.93
					C225.341,125.41,227.863,114.468,222.476,104.215z"/>
				<path style="fill:#FFA8A7;" d="M236.762,174.41c1.001-0.184,1.35-4.354,3.037-4.945c1.687-0.591,1.915-0.358,2.748-1.969
					c0.833-1.611,2.059-2.242,3.088-2.156c1.029,0.086,0.643-1.825,2.559-2.303c1.466-0.365,5.683-0.296,7.421-0.124
					c1.737,0.171,5.681,2.695,7.381,3.905c1.7,1.21,0.515,2.357-0.557,2.914c-1.072,0.557-3.179,0.061-3.179,0.061
					s1.735,1.544,1.331,2.258c-0.533,0.939-2.325,1.765-4.819,0.689c1.632,1.138,1.446,2.229,0.091,2.774
					c-1.037,0.418-2.532,0.217-4.295-0.431c-2.217-0.815-5.171-1.805-6.929-1.093l-1.726,1.36L236.762,174.41z"/>
				<path style="fill:#F0997A;" d="M236.762,174.41c0.441-0.049,0.684-0.5,0.912-0.816c0.213-0.355,0.388-0.718,0.553-1.079
					c0.338-0.713,0.623-1.449,1.029-2.024c0.193-0.285,0.42-0.532,0.667-0.631l1.096-0.433c0.373-0.138,0.825-0.406,1.06-0.785
					c0.224-0.377,0.369-0.749,0.468-1.146c-0.269,0.303-0.499,0.638-0.79,0.867c-0.272,0.245-0.568,0.331-0.951,0.42
					c-0.377,0.081-0.768,0.184-1.165,0.304c-0.512,0.178-0.836,0.557-1.098,0.907c-0.491,0.74-0.736,1.52-0.95,2.288l-0.306,1.139
					C237.179,173.791,237.097,174.183,236.762,174.41z"/>
				<path style="fill:#F0997A;" d="M259.26,169.792c-0.89-0.716-1.78-1.412-2.709-2.061c-0.94-0.652-1.831-1.293-2.951-1.809
					c-1.236-0.363-2.31-0.407-3.464-0.485c-1.135-0.065-2.273-0.053-3.412,0.03c1.114,0.254,2.227,0.467,3.339,0.644l1.659,0.279
					c0.536,0.093,1.127,0.186,1.555,0.339c0.942,0.414,1.928,1.053,2.915,1.576C257.179,168.854,258.199,169.365,259.26,169.792z"/>
				<path style="fill:#F0997A;" d="M243.775,169.212c1.062,0.165,2.16,0.178,3.184,0.249c1.016,0.08,1.952,0.414,2.91,0.847
					c1.928,0.84,3.857,1.749,5.902,2.43c-1.73-1.292-3.588-2.343-5.556-3.228c-0.981-0.429-2.11-0.786-3.237-0.725
					C245.871,168.829,244.843,169.041,243.775,169.212z"/>
			</g>
			<g>
				<path style="fill:#F28F8F;" d="M344.109,117.816c2.163-2.802,2.378-3.532,2.336-6.381c-0.042-2.849-0.027-4.156-0.136-5.264
					c-0.109-1.108-1.159-4.869-1.651-5.579c-0.884-1.275-2.763,0.862-2.6,3c0.163,2.138,0.59,4.911,0.59,4.911L344.109,117.816z"/>
				<path style="fill:#FFA8A7;" d="M334.472,130.611c0.127-0.951,4.037-1.473,4.515-3.088c0.478-1.616,0.249-1.819,1.727-2.678
					c1.478-0.859,2.016-2.042,1.887-3.007c-0.129-0.965,1.689-0.69,2.05-2.516c0.276-1.397,0.016-5.365-0.226-6.993
					c-0.242-1.628-2.8-5.224-4.018-6.768c-1.218-1.545-2.243-0.376-2.718,0.659c-0.475,1.035,0.09,2.996,0.09,2.996
					s-1.534-1.563-2.187-1.149c-0.859,0.545-1.555,2.27-0.426,4.569c-1.146-1.484-2.165-1.258-2.616,0.043
					c-0.346,0.995-0.087,2.394,0.605,4.023c0.87,2.049,1.791,4.992,1.202,6.68c-0.531,0.767-1.701,2.453-1.701,2.453
					L334.472,130.611z"/>
				<path style="fill:#F28F8F;" d="M337.78,109.216c0.715,0.804,1.412,1.611,2.065,2.455c0.657,0.855,1.302,1.664,1.84,2.695
					c0.399,1.147,0.49,2.156,0.617,3.238c0.114,1.065,0.155,2.137,0.129,3.214c-0.291-1.037-0.543-2.075-0.761-3.114l-0.339-1.549
					c-0.113-0.5-0.227-1.052-0.391-1.448c-0.433-0.868-1.08-1.767-1.618-2.672C338.759,111.131,338.23,110.194,337.78,109.216z"/>
				<path style="fill:#F28F8F;" d="M339.041,123.768c-0.204-0.993-0.267-2.026-0.382-2.987c-0.123-0.953-0.48-1.819-0.932-2.701
					c-0.88-1.776-1.825-3.55-2.561-5.444c1.296,1.569,2.372,3.27,3.296,5.082c0.45,0.904,0.838,1.95,0.832,3.015
					C339.305,121.777,339.153,122.755,339.041,123.768z"/>
			</g>
			<g id="Head_00000075147964956893635340000010755342615575043499_">
				<path style="fill:#263238;" d="M235.081,90.325c-3.092-4.501-5.913-8.361-8.278-12.379c-2.281-3.873-3.68-6.899-3.662-10.665
					c0.01-2.23,1.238-5.322,2.85-6.049c-2.38-8.15,4.763-11.935,8.009-12.908c1.245-0.373,3.521-0.693,4.707-1.086
					c1.111-1.761,1.694-2.751,3.211-3.889c1.954-1.465,6.188-1.868,8.233,0.716c1.331-1.202,3.107-1.785,5.736-1.275
					c2.506,0.486,3.017,2.249,3.274,3.547c3.352-2.137,6.293,0.247,7.106,2.145c0.82,1.912,0.074,2.774,1.134,4.064
					c1.194,1.453,3.287,1.307,3.852,0.046c0.48,2.114-0.26,3.789-2.581,3.803c0.864,1.11,1.159,2.614,0.837,4.039
					c-0.437,1.932-2.285,3.159-3.824,3.281c-0.178,1.185-0.167,2.261-0.844,3.313c-0.652,1.011-1.515,2.027-2.584,2.614
					c-3.408,1.871-7.253,2.637-10.983,3.634c-1.476,0.395-2.951,0.79-4.427,1.185c-0.258,0.069-1.606,0.229-1.753,0.47
					C245.093,74.933,235.081,90.325,235.081,90.325z"/>
				<g id="XMLID_00000009554041360275025460000003667422907566296218_">
					<path style="fill:#FFA8A7;" d="M229.382,84.85c3.452,1.802,5.59-0.485,5.59-0.485l0.176,9.591l-0.009,3.287
						c0.097,2.676,3.658,6.03,8.072,8.839c5.788,3.684,13.243,9.543,14.429,10.503c0.22-2.475-0.798-11.702-2.802-15.014
						l-0.043-7.396c0,0,3.42-0.135,5.633-0.575c3.692-0.723,6.67-3.849,7.501-7.941c0.868-4.276,0.779-11.179-0.426-16.176
						c-0.307-1.276-0.486-2.587-0.425-3.898c0.16-3.483-0.579-5.462-1.64-8.319c-4.286-3.065-15.912-3.087-24.438,2.79
						c2.151,4.395,1.224,9.044-2.485,11.266c0.26,1.409,0.642,4.985-1.695,5.052c-1.683,0.048-1.916-2.054-3.747-3.812
						c-1.869-1.795-5.889-2.026-7.291,0.801C223.82,77.319,225.601,82.876,229.382,84.85z"/>
					<path style="fill:#F28F8F;" d="M254.795,94.174c-5.944-0.358-10.467-0.744-13.788-4.846c-2.083-2.572-3.959-6.795-3.959-6.795
						s0.903,5.195,3.034,8.627c1.642,2.645,5.422,4.711,14.725,4.978L254.795,94.174z"/>
				</g>
				<g id="XMLID_00000062894827175308420180000009870999205169927332_">
					<path id="XMLID_00000008151491858395444000000003112129895764691853_" style="fill:#263238;" d="M265.147,66.094l-3.8-1.533
						c0.387-1.073,1.551-1.601,2.601-1.177C264.996,63.806,265.534,65.02,265.147,66.094z"/>
					<path id="XMLID_00000141422723170463582990000011169309554222623393_" style="fill:#263238;" d="M265.138,69.17
						c0.046,1.049-0.736,1.933-1.746,1.974c-1.01,0.041-1.866-0.776-1.912-1.825c-0.046-1.049,0.736-1.933,1.746-1.975
						C264.237,67.303,265.093,68.12,265.138,69.17z"/>
					<path id="XMLID_00000172425189404036775200000013554505935524047767_" style="fill:#263238;" d="M252.019,69.943
						c0.046,1.049-0.736,1.933-1.746,1.974c-1.01,0.041-1.866-0.776-1.912-1.826c-0.046-1.049,0.736-1.933,1.746-1.975
						C251.118,68.075,251.974,68.893,252.019,69.943z"/>
					<path style="fill:#F28F8F;" d="M262.714,76.556l-5.745,1.669l-1.505-11.399C257.593,66.783,260.403,72.029,262.714,76.556z"/>
					<path id="XMLID_00000114072184751617636780000016594814720233219972_" style="fill:#263238;" d="M250,65.511l-3.679,1.832
						c-0.483-1.059-0.051-2.327,0.965-2.833C248.302,64.003,249.517,64.452,250,65.511z"/>
				</g>
				<g>
					<path id="XMLID_00000065049917583831496700000012242088954125903540_" style="fill:#B16668;" d="M252.095,80.652l6.559,1.529
						c-0.384,1.873-2.164,3.049-3.976,2.627C252.866,84.385,251.71,82.525,252.095,80.652z"/>
					<path style="fill:#F28F8F;" d="M252.871,81.739c-0.279-0.035-0.55-0.029-0.816-0.004c0.148,1.459,1.166,2.733,2.622,3.072
						c0.365,0.085,0.726,0.09,1.078,0.052C255.883,83.345,254.62,81.96,252.871,81.739z"/>
				</g>
			</g>
			<g>
				<g>
					<path style="fill:#455A64;" d="M273.18,82.412c-0.128,1.74-1.392,3.536-3.865,3.791c-0.317,0.033-0.654,0.037-1.006,0.019
						l0.035-0.601c2.733,0.159,4.118-1.572,4.24-3.25c0.137-1.837-1.116-3.911-4.103-4.78c-0.004-0.211-0.007-0.422-0.023-0.632
						C271.898,77.884,273.341,80.288,273.18,82.412z"/>
				</g>
				<path style="fill:#263238;" d="M267.121,87.881l-2.584-0.263c-1.108-0.113-1.915-1.103-1.803-2.211l0,0
					c0.113-1.108,1.103-1.915,2.211-1.802l2.584,0.263c1.108,0.113,1.916,1.103,1.803,2.211l0,0
					C269.22,87.186,268.229,87.993,267.121,87.881z"/>
			</g>
			<g id="Neck_00000115503370676530998370000004110819424793857213_">
				<path style="fill:#263238;" d="M257.64,116.585c0.456-2.743,2.328-4.618,3.568-4.861c3.163-0.62,5.19,3.099,5.19,3.099
					s-0.595-7.458-5.795-13.924c-4.007-3.834-5.795-4.44-5.795-4.44l0.03,5.113c0,0,0.927,1.695,1.715,5.736
					C257.458,111.943,257.64,116.585,257.64,116.585z"/>
				<path style="fill:#263238;" d="M235.143,95.686c-2.355,0.452-3.901,4.299-6.752,7.065c0,0,4.446,12.271,18.861,17.869
					c0.741-2.676,0.832-4.531,3.215-5.756c2.381-1.224,7.172,1.721,7.172,1.721s-1.346-2.102-2.745-3.064
					c-6.419-4.413-8.071-5.534-11.301-7.677c-8.604-5.708-8.455-8.601-8.455-8.601L235.143,95.686z"/>
			</g>
			<g>
				<g>
					<path style="fill:#455A64;" d="M232.244,74.078l-4.785-0.754c0,0-0.831-9.016-0.062-13.825
						c0.717-4.485,3.094-8.521,5.597-10.147c1.815-1.175,3.805-1.861,5.714-2.114c-0.83,0.396-1.189,0.51-2.666,1.681
						c-0.968,0.834-4.162,4.775-4.494,12.199C231.215,68.54,232.244,74.078,232.244,74.078z"/>
				</g>
				<g>
					<g>
						<path style="fill:#37474F;" d="M237.453,83.291c1.057-4.096-0.5-9.845-3.47-12.816c-0.874-0.874-1.791-1.443-2.724-1.689
							c-0.686-0.181-1.341-0.175-1.946-0.003c-0.352,0.1-1.771,0.49-2.131,0.593c-1.449,0.414-2.601,1.786-3.141,3.877
							c-1.057,4.096,0.5,9.845,3.469,12.816c0.875,0.875,1.791,1.443,2.725,1.689c0.69,0.182,1.35,0.175,1.958-0.001
							c0.347-0.1,1.748-0.486,2.105-0.586C235.754,86.763,236.912,85.39,237.453,83.291z"/>
						<path style="fill:#263238;" d="M230.236,87.759c-0.933-0.246-1.85-0.814-2.725-1.689c-2.97-2.971-4.526-8.72-3.469-12.816
							c0.766-2.97,2.768-4.491,5.1-3.876c0.933,0.246,1.85,0.814,2.724,1.689c2.97,2.971,4.526,8.72,3.47,12.816
							C234.569,86.853,232.568,88.374,230.236,87.759z"/>
					</g>
					<g>
						<path style="fill:#F0F0F0;" d="M234.883,83.763c1.021-3.956-0.477-9.489-3.346-12.358c-1.435-1.436-2.941-1.931-4.216-1.573
							c-0.176,0.049-0.878,0.245-1.054,0.294c-1.276,0.355-2.32,1.563-2.831,3.543c-1.02,3.956,0.477,9.489,3.346,12.358
							c1.435,1.435,2.94,1.93,4.214,1.573c0.177-0.049,0.883-0.247,1.06-0.296C233.329,86.949,234.373,85.741,234.883,83.763z"/>
						<path style="fill:#E0E0E0;" d="M230.478,71.701c2.868,2.869,4.366,8.402,3.346,12.358c-1.02,3.956-4.173,4.838-7.042,1.968
							c-2.868-2.869-4.366-8.402-3.346-12.358C224.457,69.713,227.609,68.832,230.478,71.701z"/>
					</g>
					<g>
						<path style="fill:#BA68C8;" d="M233.824,84.06c1.02-3.956-0.478-9.489-3.346-12.358c-1.432-1.433-2.936-1.929-4.208-1.575
							c-0.357,0.099-1.008,0.329-1.365,0.429c-1.273,0.357-2.315,1.564-2.825,3.54c-1.021,3.956,0.478,9.489,3.346,12.358
							c1.432,1.432,2.935,1.929,4.208,1.575c0.357-0.099,1.008-0.329,1.363-0.428C232.27,87.245,233.314,86.037,233.824,84.06z"/>
						<path style="opacity:0.15;fill:#FFFFFF;" d="M229.122,72.128c2.868,2.869,4.366,8.402,3.346,12.358
							c-1.021,3.956-4.173,4.837-7.042,1.968c-2.868-2.869-4.366-8.402-3.346-12.358C223.101,70.14,226.253,69.259,229.122,72.128z"
							/>
					</g>
					<g>
						<path style="fill:#263238;" d="M227.484,75.873c1.507,1.507,2.294,4.413,1.757,6.491c-0.536,2.078-2.192,2.541-3.699,1.034
							c-1.507-1.507-2.294-4.413-1.758-6.491C224.322,74.829,225.978,74.366,227.484,75.873z"/>
						<g>
							<path style="fill:#455A64;" d="M228.747,78.256l-2.397,1.424l-1.241-4.586c0.668-0.189,1.46,0.071,2.212,0.824
								C227.922,76.523,228.41,77.348,228.747,78.256z"/>
							<path style="fill:#37474F;" d="M229.079,82.411c-0.268,1.038-0.816,1.674-1.486,1.858l-1.243-4.589l2.397-1.424
								C229.245,79.617,229.4,81.164,229.079,82.411z"/>
							<path style="fill:#455A64;" d="M227.593,84.269c-0.671,0.189-1.46-0.071-2.214-0.824c-0.604-0.603-1.09-1.431-1.424-2.34
								l2.395-1.424L227.593,84.269z"/>
							<path style="fill:#37474F;" d="M226.35,79.68l-2.395,1.424c-0.501-1.361-0.654-2.905-0.333-4.15
								c0.269-1.04,0.817-1.674,1.486-1.86L226.35,79.68z"/>
						</g>
					</g>
				</g>
			</g>
		</g>
	</g>
</g>
<g id="Speech_Bubble">
	<g id="Speech_Bubble_00000164514693364701491430000015817354008632659115_">
		<path style="fill:#BA68C8;" d="M203.509,66.691c-6.042-8.796-22.196-16.092-42.17-16.281c-18.169-0.172-40.283,5.17-45.81,22.626
			c-4.714,14.887,9.798,28.719,24.865,31.665c6.535,1.277,12.623,1.828,18.183,1.922c2.792,5.216,9.342,8.423,14.274,8.757
			c-2.549-3.02-3.218-6.503-3.273-9.172c5.554-0.522,10.275-1.437,13.96-2.358C209.695,97.312,210.269,76.534,203.509,66.691z"/>
		<path style="opacity:0.4;fill:#FFFFFF;" d="M203.509,66.691c-6.042-8.796-22.196-16.092-42.17-16.281
			c-18.169-0.172-40.283,5.17-45.81,22.626c-4.714,14.887,9.798,28.719,24.865,31.665c6.535,1.277,12.623,1.828,18.183,1.922
			c2.792,5.216,9.342,8.423,14.274,8.757c-2.549-3.02-3.218-6.503-3.273-9.172c5.554-0.522,10.275-1.437,13.96-2.358
			C209.695,97.312,210.269,76.534,203.509,66.691z"/>
		<path style="fill:#FFFFFF;" d="M135.485,72.937c-2.996,0-5.424,2.428-5.424,5.424s2.428,5.424,5.424,5.424
			c2.996,0,5.424-2.429,5.424-5.424S138.48,72.937,135.485,72.937z M160.887,72.937c-2.996,0-5.424,2.428-5.424,5.424
			s2.428,5.424,5.424,5.424c2.996,0,5.424-2.429,5.424-5.424S163.883,72.937,160.887,72.937z M186.29,72.937
			c-2.996,0-5.424,2.428-5.424,5.424s2.428,5.424,5.424,5.424c2.996,0,5.424-2.429,5.424-5.424S189.286,72.937,186.29,72.937z"/>
	</g>
</g>
<g id="Paper_Planes">
	<g id="Paper_Planes_00000127027042962035605600000015018798727748883383_">
		<g id="Paper_Plane_00000155143326359432712580000014423743696213121165_">
			<g id="XMLID_00000144307593156711888250000004292936838122334853_">
				<polygon id="XMLID_00000039852430452484798360000013793487899505145527_" style="fill:#BA68C8;" points="98.206,181.428 
					132.93,162.279 108.458,187.906 				"/>
				<polygon id="XMLID_00000125591070146706111590000015836621386567224736_" style="opacity:0.4;fill:#FFFFFF;" points="
					98.206,181.428 132.93,162.279 108.458,187.906 				"/>
				<polygon id="XMLID_00000074436789218940744810000004584471955753164214_" style="fill:#BA68C8;" points="132.93,162.279 
					94.338,177.072 84.087,170.593 				"/>
				<polygon id="XMLID_00000042727003259057456860000004300990860880358823_" style="opacity:0.4;fill:#FFFFFF;" points="
					132.93,162.279 94.338,177.072 84.087,170.593 				"/>
				<polygon id="XMLID_00000054256371411726939100000015799476297728120506_" style="fill:#BA68C8;" points="94.338,177.072 
					96.368,186.955 98.206,181.428 132.93,162.279 				"/>
				<polygon id="XMLID_00000021801423010702734850000011321768125982270094_" style="fill:#BA68C8;" points="96.368,186.955 
					101.623,183.587 98.206,181.428 				"/>
				<polygon id="XMLID_00000004516064425023230450000014582867027336605596_" style="opacity:0.2;" points="96.368,186.955 
					101.623,183.587 98.206,181.428 				"/>
				<polygon id="XMLID_00000081610091619502510910000017455719595403592332_" style="opacity:0.2;" points="98.206,181.428 
					101.623,183.587 100.785,184.124 				"/>
			</g>
			<g id="XMLID_00000130645751197552862800000012125538787487642802_">
				<g>
					<path style="fill:#E0E0E0;" d="M87.996,189.567c-0.179-0.005-0.355-0.078-0.483-0.215c-0.246-0.264-0.22-0.666,0.057-0.897
						c0.706-0.591,1.417-1.143,2.11-1.64c0.293-0.21,0.715-0.157,0.94,0.125c0.224,0.281,0.167,0.679-0.128,0.891
						c-0.667,0.478-1.35,1.01-2.032,1.579C88.326,189.52,88.161,189.572,87.996,189.567z"/>
				</g>
				<g>
					<path style="fill:#E0E0E0;" d="M135.941,263.818c-1.326-0.04-2.63-0.1-3.913-0.179c-0.37-0.023-0.651-0.326-0.628-0.676
						c0.024-0.349,0.312-0.587,0.711-0.594c1.712,0.106,3.46,0.177,5.248,0.212c0.002,0,0.005,0,0.007,0
						c0.367,0.011,0.658,0.3,0.652,0.649c-0.007,0.351-0.312,0.63-0.683,0.622C136.868,263.843,136.403,263.832,135.941,263.818z
						 M141.727,263.861c-0.355-0.011-0.644-0.285-0.65-0.626c-0.007-0.351,0.288-0.641,0.658-0.645
						c1.719-0.025,3.486-0.086,5.251-0.179c0.368,0.001,0.687,0.249,0.71,0.6c0.022,0.351-0.261,0.651-0.631,0.671
						c-1.784,0.094-3.569,0.154-5.306,0.179C141.749,263.861,141.738,263.861,141.727,263.861z M127.664,263.285
						c-0.017,0-0.033-0.001-0.05-0.003c-1.768-0.176-3.542-0.398-5.272-0.657c-0.367-0.055-0.617-0.381-0.561-0.728
						c0.057-0.347,0.4-0.576,0.766-0.529c1.707,0.257,3.457,0.475,5.202,0.649c0.369,0.037,0.637,0.35,0.6,0.699
						C128.314,263.05,128.012,263.296,127.664,263.285z M151.395,263.383c-0.335-0.01-0.618-0.256-0.648-0.581
						c-0.034-0.349,0.238-0.658,0.608-0.688c1.714-0.142,3.473-0.318,5.228-0.522c0.359-0.049,0.702,0.204,0.749,0.554
						c0.046,0.349-0.214,0.666-0.582,0.708c-1.77,0.206-3.544,0.383-5.275,0.527C151.449,263.384,151.422,263.384,151.395,263.383z
						 M118.095,261.888c-0.038-0.001-0.077-0.005-0.115-0.013c-1.765-0.344-3.508-0.735-5.182-1.159
						c-0.358-0.09-0.572-0.439-0.477-0.779c0.095-0.338,0.466-0.537,0.82-0.45c1.648,0.418,3.365,0.802,5.104,1.142
						c0.363,0.071,0.598,0.408,0.525,0.751C118.705,261.689,118.415,261.898,118.095,261.888z M108.727,259.555
						c-0.061-0.002-0.124-0.012-0.186-0.03c-1.705-0.523-3.391-1.102-5.014-1.719c-0.344-0.131-0.513-0.5-0.375-0.827
						c0.135-0.326,0.525-0.488,0.871-0.353c1.594,0.605,3.253,1.173,4.927,1.688c0.353,0.109,0.548,0.467,0.434,0.801
						C109.292,259.391,109.018,259.564,108.727,259.555z M99.719,256.183c-0.09-0.003-0.18-0.022-0.266-0.061
						c-1.627-0.729-3.221-1.515-4.737-2.336c-0.322-0.174-0.435-0.563-0.251-0.869c0.184-0.303,0.592-0.408,0.916-0.236
						c1.484,0.805,3.047,1.576,4.642,2.291c0.336,0.15,0.48,0.529,0.323,0.847C100.228,256.056,99.978,256.191,99.719,256.183z
						 M91.28,251.671c-0.121-0.004-0.243-0.039-0.352-0.108c-1.502-0.953-2.95-1.965-4.306-3.009
						c-0.287-0.222-0.332-0.622-0.099-0.895c0.233-0.271,0.653-0.314,0.944-0.091c1.324,1.018,2.738,2.007,4.206,2.939
						c0.308,0.195,0.392,0.591,0.186,0.882C91.726,251.579,91.504,251.678,91.28,251.671z M83.722,245.933
						c-0.161-0.005-0.321-0.064-0.445-0.177c-1.307-1.191-2.538-2.441-3.657-3.717c-0.237-0.27-0.199-0.672,0.086-0.896
						c0.284-0.223,0.706-0.188,0.945,0.084c1.088,1.24,2.284,2.455,3.555,3.612c0.267,0.244,0.277,0.647,0.021,0.9
						C84.089,245.873,83.904,245.938,83.722,245.933z M77.473,238.926c-0.21-0.006-0.413-0.105-0.539-0.282
						c-1.018-1.438-1.921-2.924-2.685-4.419c-0.161-0.316-0.022-0.696,0.312-0.849c0.335-0.152,0.734-0.018,0.897,0.298
						c0.735,1.44,1.606,2.874,2.59,4.262c0.207,0.292,0.125,0.687-0.182,0.883C77.745,238.896,77.608,238.93,77.473,238.926z
						 M73.181,230.718c-0.275-0.008-0.528-0.177-0.619-0.44c-0.427-1.239-0.764-2.488-0.999-3.714
						c-0.082-0.425-0.154-0.847-0.217-1.271c-0.051-0.348,0.206-0.669,0.573-0.716c0.359-0.047,0.705,0.196,0.757,0.545
						c0.059,0.405,0.128,0.81,0.207,1.217c0.225,1.17,0.546,2.363,0.955,3.547c0.115,0.334-0.077,0.692-0.429,0.801
						C73.333,230.71,73.256,230.72,73.181,230.718z M71.669,221.685c-0.36-0.011-0.65-0.29-0.652-0.633
						c-0.003-0.407,0.002-0.812,0.014-1.215c0.038-1.272,0.155-2.573,0.347-3.868c0.052-0.348,0.404-0.586,0.759-0.538
						c0.367,0.05,0.622,0.372,0.571,0.721c-0.186,1.247-0.299,2.501-0.335,3.726c-0.012,0.388-0.016,0.779-0.013,1.171
						c0.002,0.351-0.297,0.637-0.667,0.639C71.685,221.686,71.677,221.685,71.669,221.685z M72.888,212.609
						c-0.05-0.001-0.1-0.008-0.15-0.02c-0.359-0.089-0.574-0.437-0.482-0.776c0.438-1.603,0.997-3.226,1.662-4.825
						c0.135-0.327,0.524-0.487,0.869-0.356c0.345,0.129,0.515,0.499,0.379,0.825c-0.644,1.552-1.186,3.126-1.61,4.678
						C73.476,212.427,73.194,212.618,72.888,212.609z M76.324,204.055c-0.096-0.003-0.193-0.025-0.283-0.069
						c-0.331-0.159-0.463-0.543-0.297-0.855c0.793-1.486,1.683-2.965,2.648-4.396c0.199-0.295,0.613-0.382,0.927-0.192
						c0.313,0.19,0.404,0.583,0.205,0.879c-0.941,1.395-1.81,2.837-2.582,4.285C76.821,203.935,76.576,204.063,76.324,204.055z
						 M81.457,196.299c-0.135-0.004-0.269-0.046-0.385-0.13c-0.296-0.212-0.354-0.611-0.13-0.891
						c1.085-1.354,2.242-2.657,3.44-3.873c0.253-0.255,0.676-0.27,0.948-0.029c0.271,0.24,0.287,0.643,0.034,0.899
						c-1.167,1.185-2.295,2.455-3.353,3.774C81.875,196.219,81.667,196.305,81.457,196.299z"/>
				</g>
				<g>
					<path style="fill:#E0E0E0;" d="M161.069,262.282c-0.317-0.009-0.593-0.232-0.643-0.54c-0.057-0.347,0.194-0.672,0.56-0.725
						c0.872-0.126,1.753-0.26,2.638-0.403c0.364-0.058,0.713,0.175,0.776,0.521c0.063,0.346-0.182,0.674-0.548,0.734
						c-0.893,0.143-1.78,0.278-2.66,0.406C161.152,262.28,161.11,262.283,161.069,262.282z"/>
				</g>
			</g>
		</g>
		<g id="Paper_Plane_00000039850744295183196580000002878973702924756655_">
			<polygon id="XMLID_00000080204988798178041860000005547245601653884586_" style="fill:#BA68C8;" points="368.369,261.484 
				408.562,241.381 424.574,248.464 			"/>
			<polygon id="XMLID_00000124157490265838443850000016910555110515774082_" style="opacity:0.4;fill:#FFFFFF;" points="
				368.369,261.484 408.562,241.381 424.574,248.464 			"/>
			<polygon id="XMLID_00000127751074376477567160000015487507760703768708_" style="fill:#BA68C8;" points="368.369,261.484 
				403.777,237.814 397.436,228.7 			"/>
			<polygon id="XMLID_00000036248282735589570210000000439849061813041593_" style="opacity:0.4;fill:#FFFFFF;" points="
				368.369,261.484 403.777,237.814 397.436,228.7 			"/>
			<polygon id="XMLID_00000102516154537143708790000013466995995884910755_" style="fill:#BA68C8;" points="403.777,237.814 
				403.108,244.109 368.369,261.484 			"/>
			<g id="XMLID_00000135680657670727095520000015355280546762730168_">
				<path style="fill:#E0E0E0;" d="M408.625,237.721c-0.167-0.003-0.333-0.067-0.46-0.195c-0.263-0.261-0.265-0.686-0.004-0.949
					c1.216-1.227,2.333-2.588,3.318-4.047c0.206-0.307,0.624-0.388,0.931-0.181c0.308,0.207,0.388,0.624,0.181,0.931
					c-1.032,1.529-2.202,2.957-3.478,4.242C408.979,237.658,408.802,237.724,408.625,237.721z M414.242,229.696
					c-0.094-0.002-0.188-0.023-0.278-0.066c-0.334-0.16-0.475-0.561-0.315-0.895c0.747-1.558,1.374-3.21,1.865-4.909
					c0.102-0.355,0.47-0.566,0.831-0.458c0.356,0.102,0.561,0.474,0.458,0.831c-0.51,1.77-1.164,3.492-1.942,5.117
					C414.741,229.56,414.496,229.701,414.242,229.696z M417.098,220.314c-0.029-0.001-0.059-0.003-0.089-0.007
					c-0.367-0.055-0.619-0.397-0.564-0.763c0.224-1.481,0.35-3.004,0.377-4.527c0.004-0.239,0.006-0.48,0.005-0.721
					c-0.001-0.371,0.299-0.672,0.669-0.673c0.005,0,0.01,0,0.014,0c0.364,0.006,0.659,0.304,0.659,0.669
					c0,0.25-0.001,0.499-0.005,0.748c-0.028,1.582-0.159,3.165-0.392,4.703C417.721,220.08,417.429,220.32,417.098,220.314z
					 M417.197,210.502c-0.328-0.006-0.611-0.252-0.653-0.587c-0.218-1.727-0.567-3.464-1.037-5.163
					c-0.099-0.357,0.111-0.727,0.468-0.826c0.359-0.099,0.727,0.111,0.826,0.468c0.487,1.761,0.848,3.561,1.074,5.353
					c0.046,0.368-0.214,0.703-0.582,0.75C417.262,210.502,417.229,210.503,417.197,210.502z M414.698,201.014
					c-0.26-0.005-0.505-0.161-0.609-0.417c-0.66-1.614-1.443-3.204-2.328-4.73c-0.186-0.32-0.077-0.731,0.244-0.917
					c0.321-0.186,0.731-0.077,0.917,0.244c0.916,1.578,1.726,3.224,2.409,4.895c0.141,0.342-0.024,0.735-0.367,0.874
					C414.876,201,414.786,201.016,414.698,201.014z M409.872,192.467c-0.201-0.004-0.399-0.097-0.528-0.272
					c-1.032-1.395-2.177-2.751-3.406-4.032c-0.256-0.267-0.247-0.692,0.021-0.949c0.267-0.258,0.691-0.247,0.949,0.021
					c1.267,1.321,2.449,2.722,3.515,4.163c0.22,0.298,0.157,0.718-0.141,0.938C410.16,192.427,410.015,192.469,409.872,192.467z
					 M403.159,185.302c-0.15-0.003-0.3-0.055-0.423-0.16c-0.802-0.682-1.638-1.349-2.488-1.979
					c-0.563-0.418-1.139-0.827-1.725-1.227c-0.306-0.209-0.385-0.626-0.176-0.932c0.209-0.306,0.625-0.388,0.932-0.176
					c0.601,0.41,1.191,0.829,1.768,1.257c0.873,0.648,1.734,1.333,2.558,2.035c0.282,0.24,0.316,0.664,0.076,0.946
					C403.546,185.226,403.353,185.305,403.159,185.302z M395.098,179.68c-0.109-0.002-0.22-0.03-0.322-0.089
					c-1.49-0.857-3.075-1.684-4.711-2.455c-0.335-0.158-0.478-0.558-0.321-0.894c0.16-0.336,0.559-0.476,0.894-0.321
					c1.669,0.788,3.286,1.631,4.808,2.505c0.321,0.185,0.432,0.596,0.247,0.917C395.566,179.563,395.335,179.684,395.098,179.68z
					 M386.239,175.415c-0.079-0.001-0.16-0.016-0.237-0.048c-1.615-0.647-3.299-1.259-5.005-1.818
					c-0.353-0.115-0.544-0.495-0.429-0.846c0.115-0.354,0.497-0.54,0.847-0.43c1.734,0.568,3.445,1.19,5.086,1.848
					c0.344,0.138,0.511,0.529,0.373,0.872C386.767,175.26,386.509,175.42,386.239,175.415z M376.909,172.295
					c-0.055-0.001-0.11-0.009-0.167-0.023c-1.675-0.461-3.417-0.89-5.181-1.273c-0.362-0.079-0.592-0.436-0.513-0.798
					c0.079-0.363,0.44-0.594,0.798-0.513c1.787,0.388,3.555,0.823,5.253,1.289c0.357,0.099,0.567,0.468,0.469,0.826
					C377.484,172.104,377.208,172.301,376.909,172.295z M322.867,171.223c-0.299-0.005-0.568-0.21-0.64-0.514
					c-0.086-0.36,0.136-0.722,0.496-0.809c1.718-0.412,3.498-0.783,5.291-1.103c0.367-0.066,0.714,0.178,0.779,0.542
					c0.065,0.365-0.178,0.714-0.542,0.779c-1.768,0.316-3.522,0.681-5.214,1.087C322.978,171.219,322.921,171.224,322.867,171.223z
					 M367.299,170.158c-0.034-0.001-0.069-0.003-0.104-0.01c-1.721-0.299-3.498-0.564-5.281-0.786
					c-0.367-0.046-0.628-0.381-0.582-0.749c0.045-0.367,0.392-0.636,0.749-0.583c1.803,0.224,3.601,0.492,5.345,0.795
					c0.365,0.063,0.609,0.411,0.546,0.776C367.913,169.932,367.624,170.164,367.299,170.158z M332.537,169.441
					c-0.326-0.006-0.608-0.249-0.652-0.582c-0.049-0.368,0.209-0.705,0.576-0.754c1.759-0.235,3.566-0.429,5.368-0.58
					c0.36-0.027,0.694,0.245,0.725,0.613c0.031,0.369-0.244,0.693-0.613,0.725c-1.78,0.148-3.565,0.34-5.302,0.571
					C332.605,169.44,332.57,169.442,332.537,169.441z M357.535,168.902c-0.016,0-0.031,0-0.046-0.002
					c-1.764-0.151-3.557-0.263-5.328-0.334c-0.37-0.014-0.658-0.327-0.644-0.697c0.014-0.365,0.318-0.651,0.682-0.644
					c0.005,0,0.01,0,0.015,0c1.791,0.071,3.605,0.184,5.389,0.337c0.37,0.032,0.643,0.357,0.612,0.726
					C358.184,168.642,357.885,168.908,357.535,168.902z M342.337,168.583c-0.352-0.006-0.641-0.285-0.658-0.642
					c-0.016-0.37,0.271-0.684,0.641-0.7c1.779-0.078,3.595-0.115,5.397-0.111c0.003,0,0.007,0,0.01,0
					c0.366,0.007,0.66,0.306,0.659,0.673c-0.001,0.37-0.302,0.669-0.673,0.669c-1.78-0.004-3.576,0.033-5.335,0.11
					C342.366,168.584,342.352,168.583,342.337,168.583z"/>
			</g>
		</g>
	</g>
</g>
</svg>
