<?xml version="1.0" encoding="iso-8859-1"?>
<!-- Uploaded to: SVG Repo, www.svgrepo.com, Generator: SVG Repo Mixer Tools -->
<svg fill="#000000" height="800px" width="800px" version="1.1" id="Layer_1" xmlns="http://www.w3.org/2000/svg" xmlns:xlink="http://www.w3.org/1999/xlink" 
	 viewBox="0 0 503.937 503.937" xml:space="preserve">
<g>
	<g>
		<g>
			<path d="M344.296,268.808c-4.642,0-8.393,3.76-8.393,8.393c0,23.493-7.705,33.532-14.495,42.378
				c-3.769,4.893-7.579,9.938-9.468,16.376h-1.922c-0.613-11.356,0.974-19.103,2.434-26.028c2.224-10.525,4.323-20.472-2.417-36.05
				c-1.838-4.255-6.782-6.236-11.029-4.381c-4.264,1.847-6.22,6.782-4.381,11.037c4.625,10.685,3.408,16.426,1.402,25.936
				c-1.57,7.453-3.416,16.476-2.812,29.486h-3.357c-4.944-7.655-4.684-14.067-4.323-22.562c0.453-10.66,1.016-23.921-9.703-40.708
				c-2.493-3.911-7.688-5.044-11.591-2.552c-3.911,2.484-5.053,7.68-2.56,11.583c7.873,12.33,7.504,20.967,7.076,30.963
				c-0.428,10.047-0.781,21.361,8.393,34.304v56.119c0,27.774-22.587,50.361-50.361,50.361h-25.18
				c-27.774,0-50.361-22.587-50.361-50.369l-0.017-16.997h0.017c9.258,0,16.787-7.529,16.787-16.779l0.017-33.582h1.956
				c12.8,0,23.208-10.332,23.208-23.04v-14.403c0-11.39,9.409-20.656,20.984-20.656c20.832,0,37.77-16.795,37.77-37.443V131.651
				c0-17.055-13.983-30.93-31.182-30.93h-10.786V16.77c0-9.25-7.521-16.77-16.77-16.77h-41.959v33.574
				c0,4.642-3.752,8.393-8.393,8.393h-25.18v8.393h25.18c4.642,0,8.393,3.752,8.393,8.393v25.18c0,4.642-3.752,8.393-8.393,8.393
				h-25.18v8.393h-16.787V83.934c0-4.642,3.752-8.393,8.393-8.393h25.18v-8.393h-25.18c-4.642,0-8.393-3.752-8.393-8.393v-25.18
				c0-4.642,3.752-8.393,8.393-8.393h25.18V0H58.902c-9.241,0-16.77,7.521-16.77,16.77v83.951H31.347
				c-17.198,0-31.182,13.874-31.182,30.93v108.544c0,20.648,16.946,37.443,37.771,37.443c11.575,0,20.984,9.266,20.984,20.656
				v14.403c0,12.708,10.408,23.04,23.208,23.04h1.989l-0.017,33.574c0,9.25,7.521,16.779,16.77,16.787l0.017,17.005
				c0,55.548,45.182,100.721,100.721,100.721h25.18c55.539,0,100.721-45.174,100.721-100.721v-58.754
				c0-4.935,2.468-8.385,7.202-14.537c7.588-9.888,17.979-23.409,17.979-52.61C352.689,272.569,348.938,268.808,344.296,268.808z
				 M100.886,369.32l0.017-33.582h50.369l-0.008,33.574L100.886,369.32z"/>
			<path d="M403.051,0.222h-16.787c-55.539,0-100.721,45.182-100.721,100.721v67.148c0,4.935-2.468,8.385-7.202,14.537
				c-7.588,9.888-17.979,23.409-17.979,52.61c0,4.642,3.752,8.393,8.393,8.393c4.642,0,8.393-3.752,8.393-8.393
				c0-23.493,7.705-33.523,14.504-42.378c3.76-4.893,7.571-9.929,9.459-16.376h1.922c0.613,11.356-0.974,19.103-2.434,26.036
				c-2.224,10.517-4.323,20.463,2.417,36.041c1.368,3.173,4.457,5.07,7.714,5.07c1.108,0,2.241-0.218,3.315-0.688
				c4.264-1.847,6.22-6.782,4.381-11.029c-4.625-10.693-3.408-16.434-1.402-25.936c1.57-7.462,3.416-16.476,2.812-29.495h3.357
				c4.944,7.655,4.684,14.076,4.323,22.562c-0.453,10.66-1.016,23.921,9.703,40.708c1.603,2.51,4.314,3.878,7.084,3.878
				c1.553,0,3.106-0.428,4.507-1.318c3.911-2.493,5.053-7.68,2.56-11.591c-7.873-12.33-7.504-20.958-7.076-30.963
				c0.428-10.039,0.789-21.361-8.393-34.296v-64.52c0-27.774,22.587-50.361,50.361-50.361h16.787
				c27.774,0,50.361,22.587,50.361,50.361v394.601c0,4.633,3.752,8.393,8.393,8.393h33.574c4.642,0,8.393-3.76,8.393-8.393V100.943
				C503.772,45.403,458.59,0.222,403.051,0.222z"/>
		</g>
	</g>
</g>
</svg>